<svg xmlns="http://www.w3.org/2000/svg" width="256" height="256" viewBox="0 0 100 100"><rect width="100" height="100" rx="50" fill="#7d6ee7"></rect><path d="M40.10 67.13L40.10 67.13Q39.32 67.79 37.73 68.27Q36.14 68.75 34.28 68.75L34.28 68.75Q32 68.75 30.38 68.09Q28.76 67.43 28.16 66.23L28.16 66.23Q27.44 64.79 26.48 62.54Q25.52 60.29 24.47 57.56Q23.42 54.83 22.28 51.71Q21.14 48.59 20.09 45.44Q19.04 42.29 18.11 39.26Q17.18 36.23 16.52 33.65L16.52 33.65Q17.30 32.93 18.71 32.27Q20.12 31.61 21.74 31.61L21.74 31.61Q23.72 31.61 24.95 32.48Q26.18 33.35 26.84 35.57L26.84 35.57Q28.64 41.81 30.44 47.57Q32.24 53.33 34.28 59.45L34.28 59.45L34.64 59.45Q36.44 53.63 38.36 46.61Q40.28 39.59 41.96 32.69L41.96 32.69Q42.92 32.21 44 31.91Q45.08 31.61 46.46 31.61L46.46 31.61Q48.44 31.61 49.85 32.51Q51.26 33.41 51.26 35.45L51.26 35.45Q51.26 36.71 50.63 39.23Q50 41.75 48.98 44.93Q47.96 48.11 46.70 51.59Q45.44 55.07 44.21 58.19Q42.98 61.31 41.87 63.71Q40.76 66.11 40.10 67.13ZM67.88 61.55L67.88 61.55Q71.06 61.55 72.41 60.44Q73.76 59.33 73.76 57.77L73.76 57.77Q73.76 56.33 72.71 55.46Q71.66 54.59 69.56 53.93L69.56 53.93L66.50 52.97Q63.98 52.19 61.94 51.26Q59.90 50.33 58.46 49.04Q57.02 47.75 56.21 45.98Q55.40 44.21 55.40 41.69L55.40 41.69Q55.40 36.65 59.21 33.71Q63.02 30.77 69.80 30.77L69.80 30.77Q72.38 30.77 74.57 31.13Q76.76 31.49 78.32 32.24Q79.88 32.99 80.78 34.07Q81.68 35.15 81.68 36.59L81.68 36.59Q81.68 37.97 80.99 39.02Q80.30 40.07 79.40 40.79L79.40 40.79Q78.02 39.83 75.74 39.17Q73.46 38.51 70.76 38.51L70.76 38.51Q67.88 38.51 66.50 39.41Q65.12 40.31 65.12 41.69L65.12 41.69Q65.12 42.89 66.02 43.52Q66.92 44.15 68.84 44.81L68.84 44.81L72.08 45.89Q74.90 46.85 77.03 47.96Q79.16 49.07 80.60 50.48Q82.04 51.89 82.76 53.72Q83.48 55.55 83.48 57.89L83.48 57.89Q83.48 60.41 82.49 62.48Q81.50 64.55 79.55 66.05Q77.60 67.55 74.75 68.39Q71.90 69.23 68.18 69.23L68.18 69.23Q65.42 69.23 63.08 68.78Q60.74 68.33 59.03 67.49Q57.32 66.65 56.33 65.42Q55.34 64.19 55.34 62.63L55.34 62.63Q55.34 61.01 56.27 59.93Q57.20 58.85 58.34 58.19L58.34 58.19Q59.96 59.51 62.39 60.53Q64.82 61.55 67.88 61.55Z" fill="#fff"></path></svg>